<svg width="100%" height="100%" viewBox="0 0 548 373" version="1.1" xmlns="http://www.w3.org/2000/svg" xmlns:xlink="http://www.w3.org/1999/xlink" xml:space="preserve" xmlns:serif="http://www.serif.com/" style="fill-rule:evenodd;clip-rule:evenodd;stroke-linejoin:round;stroke-miterlimit:2;"><path d="M0,0l169.809,0l0,372.058l-169.809,0l0,-372.058Zm358.904,0l0,372.058l-169.808,0l0,-372.058l169.808,0Zm189.096,0l0,372.058l-169.809,0l0,-372.058l169.809,0Zm-269.739,284.622l5.53,-8.25c6.225,0.303 11.06,0.454 14.505,0.454l11.423,-0.272c11.241,-0.302 20.578,-0.484 28.012,-0.544c-0.967,5.173 -1.662,9.524 -2.085,13.054c-6.467,-1.027 -15.17,-1.722 -26.109,-2.085c0.725,3.143 1.088,5.802 1.088,7.978c0,4.895 -1.163,9.912 -3.49,15.049c-2.327,5.137 -6.301,10.667 -11.921,16.59c6.164,4.533 12.027,7.781 17.587,9.745c5.56,1.965 10.607,2.947 15.139,2.947c2.297,0 5.772,-1.451 10.426,-4.352l1.36,4.352c-7.615,5.439 -12.964,9.579 -16.046,12.42c-2.418,0.785 -4.896,1.178 -7.434,1.178c-9.247,0 -20.065,-5.016 -32.455,-15.049c-6.95,5.681 -13.266,9.61 -18.947,11.786c-5.681,2.175 -11.906,3.263 -18.675,3.263c-11.121,0 -20.217,-3.505 -27.288,-10.516c-7.071,-7.011 -10.607,-15.714 -10.607,-26.109c0,-8.824 2.599,-16.65 7.797,-23.48c3.566,-4.654 10.455,-10.123 20.669,-16.409c-3.505,-9.186 -5.258,-16.952 -5.258,-23.298c0,-4.896 0.726,-9.157 2.176,-12.783c0.967,-2.478 2.841,-4.925 5.621,-7.343c7.131,-6.104 11.634,-9.64 13.507,-10.607c2.72,-1.39 5.893,-2.085 9.519,-2.085c5.138,0 9.172,1.571 12.103,4.714c2.931,3.142 4.397,7.372 4.397,12.691c0,12.389 -8.854,24.747 -26.562,37.075c9.913,18.311 22.426,34.174 37.538,47.591c3.442,-4.17 5.813,-8.006 7.111,-11.511c1.299,-3.504 1.948,-7.19 1.948,-11.057c0,-4.23 -0.725,-7.735 -2.176,-10.515c-0.665,-1.268 -1.632,-2.084 -2.901,-2.446c-2.176,-0.605 -7.192,-0.876 -15.049,-0.816l-0.453,-1.36Zm-237.869,-55.028c5.138,0 8.371,1.178 9.7,3.535c1.088,1.995 1.632,10.547 1.632,25.656l0,56.479c0,9.186 -0.211,17.376 -0.634,24.568c-0.121,2.236 -0.529,3.838 -1.224,4.805c-0.695,0.967 -2.916,2.357 -6.664,4.17l0,4.079l7.525,-0.272c4.412,-0.241 8.129,-0.362 11.151,-0.362c4.17,0 9.277,0.141 15.32,0.423l7.162,0.211c14.868,0 27.122,-4.189 36.761,-12.566c9.64,-8.378 14.46,-18.343 14.46,-29.896c0,-9.134 -2.871,-16.287 -8.612,-21.458c-5.742,-5.172 -15.11,-8.181 -28.104,-9.028c11.06,-3.519 18.872,-7.887 23.435,-13.104c4.563,-5.217 6.844,-11.283 6.844,-18.2c0,-8.432 -3.233,-14.953 -9.7,-19.564c-5.137,-3.64 -12.903,-5.459 -23.298,-5.459l-13.236,0.339c-11.242,0.378 -18.766,0.567 -22.574,0.567c-2.477,0 -5.892,-0.106 -10.244,-0.317l-8.34,-0.318l-7.525,0l0,5.712l6.165,0Zm436.665,50.344c12.994,0.847 22.362,3.856 28.103,9.028c5.742,5.171 8.613,12.324 8.613,21.458c0,11.553 -4.82,21.518 -14.46,29.896c-9.64,8.377 -21.894,12.566 -36.761,12.566l-7.162,-0.211c-6.044,-0.282 -11.151,-0.423 -15.321,-0.423c-3.022,0 -6.739,0.121 -11.151,0.362l-7.524,0.272l0,-4.079c3.747,-1.813 5.968,-3.203 6.663,-4.17c0.695,-0.967 1.103,-2.569 1.224,-4.805c0.423,-7.192 0.635,-15.382 0.635,-24.568l0,-56.479c0,-15.109 -0.544,-23.661 -1.632,-25.656c-1.33,-2.357 -4.563,-3.535 -9.7,-3.535l-6.165,0l0,-5.712l7.524,0l8.341,0.318c4.351,0.211 7.766,0.317 10.244,0.317c3.807,0 11.332,-0.189 22.573,-0.567l13.236,-0.339c10.395,0 18.162,1.819 23.299,5.459c6.467,4.611 9.7,11.132 9.7,19.564c0,6.917 -2.282,12.983 -6.845,18.2c-4.563,5.217 -12.374,9.585 -23.434,13.104Zm-408.29,63.883c5.621,0.846 10.275,1.269 13.962,1.269c10.697,0 18.992,-2.856 24.885,-8.567c5.892,-5.712 8.839,-13.463 8.839,-23.254c0,-6.527 -1.3,-11.921 -3.899,-16.182c-2.598,-4.26 -6.24,-7.373 -10.924,-9.337c-4.684,-1.964 -12.163,-2.947 -22.437,-2.947c-3.082,0 -6.558,0.091 -10.426,0.272l0,32.183l0.091,11.423c0.181,4.11 0.272,7.253 0.272,9.428c0,1.632 -0.121,3.536 -0.363,5.712Zm378.192,0c5.621,0.846 10.274,1.269 13.961,1.269c10.697,0 18.992,-2.856 24.885,-8.567c5.893,-5.712 8.839,-13.463 8.839,-23.254c0,-6.527 -1.299,-11.921 -3.898,-16.182c-2.599,-4.26 -6.24,-7.373 -10.924,-9.337c-4.684,-1.964 -12.163,-2.947 -22.438,-2.947c-3.082,0 -6.557,0.091 -10.425,0.272l0,32.183l0.091,11.423c0.181,4.11 0.272,7.253 0.272,9.428c0,1.632 -0.121,3.536 -0.363,5.712Zm-168.698,-10.698c-14.324,-13.175 -27.137,-29.856 -38.438,-50.042c-5.802,4.049 -9.882,8.174 -12.239,12.375c-2.357,4.2 -3.536,8.869 -3.536,14.006c0,8.461 2.932,16.016 8.794,22.664c5.863,6.648 13.175,9.972 21.939,9.972c7.555,0 15.381,-2.992 23.48,-8.975Zm-209.494,-55.753c3.022,0.181 5.802,0.272 8.341,0.272c12.027,0 20.639,-2.131 25.837,-6.392c5.197,-4.261 7.796,-10.41 7.796,-18.448c0,-6.951 -2.175,-12.284 -6.527,-16.001c-4.351,-3.717 -11.302,-5.575 -20.851,-5.575c-4.231,0 -8.824,0.392 -13.78,1.178c-0.544,7.374 -0.816,18.524 -0.816,33.452l0,11.514Zm378.192,0c3.022,0.181 5.802,0.272 8.34,0.272c12.027,0 20.64,-2.131 25.837,-6.392c5.198,-4.261 7.797,-10.41 7.797,-18.448c0,-6.951 -2.176,-12.284 -6.527,-16.001c-4.352,-3.717 -11.302,-5.575 -20.851,-5.575c-4.231,0 -8.824,0.392 -13.78,1.178c-0.544,7.374 -0.816,18.524 -0.816,33.452l0,11.514Zm-197.799,-8.975c11.121,-8.945 16.681,-17.739 16.681,-26.381c0,-3.808 -0.937,-6.845 -2.81,-9.111c-1.874,-2.267 -4.231,-3.4 -7.072,-3.4c-3.384,0 -6.149,1.345 -8.295,4.034c-2.145,2.69 -3.218,6.815 -3.218,12.375c0,6.165 1.571,13.659 4.714,22.483Z" style="fill:#132f62;"/></svg>