<?xml version="1.0" encoding="UTF-8" standalone="no"?><!DOCTYPE svg PUBLIC "-//W3C//DTD SVG 1.1//EN" "http://www.w3.org/Graphics/SVG/1.1/DTD/svg11.dtd"><svg width="100%" height="100%" viewBox="0 0 2090 320" version="1.1" xmlns="http://www.w3.org/2000/svg" xmlns:xlink="http://www.w3.org/1999/xlink" xml:space="preserve" xmlns:serif="http://www.serif.com/" style="fill-rule:evenodd;clip-rule:evenodd;stroke-linejoin:round;stroke-miterlimit:2;"><g><path d="M167.692,219.206c12.834,10.191 23.129,20.171 30.867,29.95c1.629,2.046 2.296,4.333 1.987,6.875c-0.304,2.55 -1.483,4.637 -3.516,6.266c-0.204,0.205 -0.504,0.409 -0.913,0.605c-0.608,1.437 -1.529,2.662 -2.758,3.675c-10.8,8.766 -22.558,14.616 -35.296,17.57c-12.733,2.955 -26.942,4.325 -42.633,4.13c-23.429,-0.409 -45.85,-6.321 -67.238,-17.725c-9.991,-5.296 -18.546,-12.225 -25.683,-20.788c-7.129,-8.35 -12.329,-17.312 -15.575,-26.892c-3.263,-9.575 -5.404,-19.816 -6.421,-30.72c-1.025,-10.892 -0.512,-21.442 1.521,-31.638c3.467,-21.796 11.417,-41.962 23.837,-60.512c12.434,-18.738 27.709,-32.188 45.85,-40.342c20.58,-9.371 40.55,-11.608 59.905,-6.725c19.358,4.687 35.962,15.796 49.82,33.317c3.467,4.079 6.063,7.387 7.796,9.933c1.725,2.55 3.517,5.912 5.346,10.087c1.833,4.18 3.158,8.609 3.971,13.292c0.621,2.654 0.154,5.05 -1.375,7.188c-1.529,2.133 -3.517,3.408 -5.958,3.816c-0.821,0.204 -1.634,0.304 -2.442,0.304c-12.025,5.709 -20.675,10.084 -25.983,13.146c-2.034,1.429 -4.33,1.834 -6.867,1.225c-2.558,-0.616 -4.542,-2.041 -5.967,-4.287c-0.416,-0.604 -0.716,-1.217 -0.921,-1.834c-0.608,-0.608 -1.025,-1.316 -1.22,-2.137c-5.705,-15.283 -12.638,-24.546 -20.784,-27.813c-8.358,-3.666 -18.596,-3.716 -30.721,-0.154c-12.116,3.571 -21.541,9.021 -28.27,16.354c-8.959,9.371 -14.317,21.038 -16.042,34.996c-1.733,13.959 0.154,27.25 5.658,39.888c5.296,13.041 13.142,23.429 23.534,31.179c10.383,7.733 22.104,11.204 35.141,10.387c13.038,-0.816 25.163,-6.729 36.367,-17.729c0.417,-1.221 1.025,-2.346 1.842,-3.358c1.625,-2.038 3.716,-3.208 6.266,-3.521c2.546,-0.304 4.842,0.358 6.875,1.992" style="fill:#1926aa;fill-rule:nonzero;"/><path d="M379.712,49.882c0.417,7.333 0.617,17.525 0.617,30.563c0.195,13.858 0.408,23.637 0.62,29.341c1.417,27.509 5.8,81.809 13.134,162.904l0,0.305c1.637,1.629 2.55,3.666 2.758,6.112c0.188,2.642 -0.567,4.938 -2.3,6.875c-1.733,1.933 -3.925,3.008 -6.571,3.217c-13.45,0.808 -24.037,1.012 -31.783,0.608c-2.654,-0.204 -4.846,-1.279 -6.571,-3.208c-1.733,-1.946 -2.496,-4.234 -2.292,-6.875c0,-0.413 0.096,-0.921 0.309,-1.538c0,-0.2 -0.109,-0.404 -0.309,-0.612c-4.283,-28.721 -7.137,-49.817 -8.554,-63.263c-6.933,0.413 -17.733,1.325 -32.408,2.759c-16.5,1.629 -27.504,2.645 -32.996,3.045c3.05,22.825 4.579,39.03 4.579,48.6l0,1.53c0.613,1.22 0.913,2.445 0.913,3.662c0.204,2.658 -0.563,4.946 -2.288,6.883c-1.741,1.93 -3.929,3.005 -6.575,3.209c-14.054,0.812 -27.196,2.337 -39.429,4.583c-2.442,0.617 -4.737,0.25 -6.875,-1.071c-2.142,-1.325 -3.517,-3.208 -4.129,-5.65c-2.65,-1.837 -3.971,-4.379 -3.971,-7.641c0,-14.059 0.204,-35.459 0.613,-64.184c0.412,-28.733 0.562,-54.304 0.454,-76.716c-0.096,-22.413 -0.659,-43.709 -1.675,-63.88c-0.213,-2.45 0.504,-4.583 2.141,-6.42c-0.416,-1.225 -0.416,-2.546 0,-3.967c0.609,-2.45 1.984,-4.392 4.125,-5.808c2.138,-1.425 4.534,-1.834 7.184,-1.221c8.962,2.033 18.433,2.246 28.421,0.604l1.829,0c2.654,0 4.941,0.871 6.883,2.592c1.938,1.741 2.908,3.933 2.908,6.575c1.417,49.52 1.317,86.608 -0.316,111.258c38.108,-1.425 59.496,-2.142 64.191,-2.142c-1.433,-11.004 -2.654,-22.662 -3.67,-34.991c-1.025,-12.33 -2.142,-26.134 -3.363,-41.417l-2.45,-35.15c-1.829,-1.625 -2.954,-3.667 -3.358,-6.108c-0.204,-2.65 0.454,-4.992 1.983,-7.034c1.538,-2.033 3.621,-3.258 6.275,-3.666c6.308,-0.809 19.354,-1.117 39.113,-0.917c0.82,-0.404 1.733,-0.608 2.758,-0.608c2.646,-0.205 4.942,0.558 6.875,2.295c1.929,1.725 2.996,3.917 3.2,6.567" style="fill:#1926aa;fill-rule:nonzero;"/><path d="M548.576,56.909c6.721,-0.612 13.338,-1.121 19.867,-1.529c2.441,-0.2 4.579,0.408 6.421,1.833c1.829,1.425 2.945,3.259 3.358,5.509c0.808,1.425 1.221,2.954 1.221,4.575c0,19.562 -0.154,34.9 -0.463,46.004c-0.3,11.104 -1.116,25.933 -2.441,44.466c-1.325,18.542 -3.721,35.409 -7.18,50.588c-3.466,15.175 -8.054,29.183 -13.754,42.025c-2.65,5.908 -6.321,12.067 -11,18.487c-4.696,6.421 -9.587,11.463 -14.683,15.13c-12.425,8.554 -29.338,11.612 -50.721,9.17c-20.996,-2.245 -36.792,-8.766 -47.379,-19.562c-7.75,-7.946 -13.763,-21.592 -18.038,-40.954c-3.466,-15.479 -6.012,-34.538 -7.633,-57.154c-1.633,-22.409 -2.45,-56.855 -2.45,-103.305l0,-0.612c-0.208,-0.404 -0.308,-0.913 -0.308,-1.525c-0.204,-2.646 0.504,-4.996 2.141,-7.033c1.63,-2.034 3.767,-3.155 6.421,-3.363c4.892,-0.404 10.588,-0.508 17.113,-0.304c1.021,0 2.596,0.054 4.737,0.154c2.142,0.1 4.125,0.15 5.967,0.15l4.892,0c2.641,0 4.887,0.917 6.72,2.754c1.83,1.834 2.75,4.075 2.75,6.725c0,1.629 -0.416,3.154 -1.229,4.584c0,1.633 -0.146,9.475 -0.454,23.533c-0.304,14.062 -0.408,24.396 -0.304,31.021c0.1,6.625 0.246,18.083 0.458,34.391c0.609,20.575 2.034,37.484 4.279,50.73c2.442,14.47 5.6,23.533 9.475,27.2c8.755,8.762 18.742,10.7 29.955,5.808c5.087,-2.242 9.979,-5.75 14.666,-10.546c4.688,-4.787 8.454,-10.133 11.309,-16.046c4.883,-9.575 8.662,-32.804 11.312,-69.687c1.213,-17.521 2.338,-43.809 3.363,-78.854c0,-2.642 1.112,-4.888 3.362,-6.721c0.404,-2.029 1.375,-3.763 2.904,-5.196c1.529,-1.425 3.313,-2.242 5.346,-2.446" style="fill:#1926aa;fill-rule:nonzero;"/><path d="M669.499,106.726c-0.213,6.725 -0.821,17.837 -1.846,33.316c6.525,0.409 11.825,0.613 15.892,0.613c13.454,-0.204 23.641,-3.867 30.566,-11.008c2.034,-2.442 3.159,-4.271 3.363,-5.496c0.404,-1.417 0,-3.363 -1.221,-5.813c-3.671,-6.921 -12.437,-10.887 -26.287,-11.921c-5.909,-0.604 -12.738,-0.495 -20.467,0.309m-22.321,187.971c-14.054,0 -24.758,-0.209 -32.092,-0.617c-2.65,-0.204 -4.841,-1.279 -6.566,-3.208c-1.742,-1.938 -2.496,-4.234 -2.296,-6.875l0,-0.913c-0.608,-1.433 -0.908,-3.058 -0.908,-4.9l0.3,-3.354c-0.821,-1.633 -1.221,-3.258 -1.221,-4.888c0.196,-17.32 0.3,-27.92 0.3,-31.795c0,-3.867 -0.3,-14.463 -0.909,-31.78c-0.62,-17.316 -0.92,-27.912 -0.92,-31.787c-0.213,-6.925 -0.109,-24.546 0.3,-52.879c0.408,-22.204 0,-39.317 -1.221,-51.346c-0.204,-2.033 0.3,-3.971 1.521,-5.804c-0.196,-0.404 -0.3,-0.717 -0.3,-0.921c-0.205,-2.642 0.562,-4.992 2.295,-7.025c1.725,-2.038 3.817,-3.158 6.267,-3.363c20.375,-1.629 41.763,-1.529 64.175,0.305c29.142,2.654 50.129,8.15 62.971,16.508c11.404,7.537 19.867,16.25 25.367,26.129c5.495,9.883 7.429,20.125 5.804,30.717c-1.425,10.187 -6.009,19.458 -13.754,27.816c-7.746,8.35 -17.725,15.075 -29.946,20.163c-2.859,1.225 -5.917,2.246 -9.175,3.062c0.816,2.855 2.954,9.584 6.421,20.171l7.333,22.317c1.425,4.271 3.612,10.437 6.567,18.483c2.954,8.054 5.862,15.184 8.716,21.396c2.85,6.221 5.909,12.283 9.163,18.192c1.025,1.621 1.425,3.358 1.221,5.196c0.204,0.4 0.312,0.804 0.312,1.22c0.2,2.642 -0.508,4.988 -2.133,7.025c-1.638,2.03 -3.671,3.255 -6.121,3.667c-14.875,1.629 -25.571,3.054 -32.096,4.279c-2.442,0.409 -4.737,-0.15 -6.867,-1.679c-2.141,-1.525 -3.516,-3.617 -4.129,-6.267l0,-1.216c-0.412,-0.413 -0.716,-1.025 -0.916,-1.838c-9.175,-20.787 -23.43,-55.321 -42.792,-103.608c0,-0.408 -0.104,-0.813 -0.308,-1.225l-7.934,0c-0.425,11.417 -0.321,26.487 0.292,45.233c1.025,31.171 1.537,48.288 1.537,51.346c0.805,1.425 1.221,2.954 1.221,4.588c0,2.65 -0.921,4.887 -2.758,6.72c-1.833,1.838 -4.079,2.755 -6.721,2.755" style="fill:#1926aa;fill-rule:nonzero;"/><path d="M852.067,106.726c-0.212,6.725 -0.812,17.837 -1.837,33.316c6.516,0.409 11.816,0.613 15.9,0.613c13.446,-0.204 23.633,-3.867 30.558,-11.008c2.033,-2.442 3.158,-4.271 3.363,-5.496c0.404,-1.417 0,-3.363 -1.213,-5.813c-3.679,-6.921 -12.446,-10.887 -26.287,-11.921c-5.917,-0.604 -12.746,-0.495 -20.484,0.309m-22.312,187.971c-14.059,0 -24.759,-0.209 -32.092,-0.617c-2.65,-0.204 -4.85,-1.279 -6.575,-3.208c-1.733,-1.938 -2.487,-4.234 -2.287,-6.875l0,-0.913c-0.609,-1.433 -0.909,-3.058 -0.909,-4.9l0.3,-3.354c-0.821,-1.633 -1.229,-3.258 -1.229,-4.888c0.204,-17.32 0.308,-27.92 0.308,-31.795c0,-3.867 -0.308,-14.463 -0.916,-31.78c-0.613,-17.316 -0.921,-27.912 -0.921,-31.787c-0.204,-6.925 -0.1,-24.546 0.308,-52.879c0.409,-22.204 0,-39.317 -1.229,-51.346c-0.204,-2.033 0.317,-3.971 1.538,-5.804c-0.213,-0.404 -0.309,-0.717 -0.309,-0.921c-0.204,-2.642 0.563,-4.992 2.296,-7.025c1.733,-2.038 3.817,-3.158 6.267,-3.363c20.366,-1.629 41.762,-1.529 64.183,0.305c29.125,2.654 50.121,8.15 62.954,16.508c11.413,7.537 19.875,16.25 25.375,26.129c5.504,9.883 7.421,20.125 5.804,30.717c-1.425,10.187 -6.016,19.458 -13.754,27.816c-7.746,8.35 -17.725,15.075 -29.954,20.163c-2.858,1.225 -5.908,2.246 -9.167,3.062c0.809,2.855 2.946,9.584 6.413,20.171l7.342,22.317c1.425,4.271 3.612,10.437 6.566,18.483c2.954,8.054 5.863,15.184 8.717,21.396c2.85,6.221 5.9,12.283 9.171,18.192c1.016,1.621 1.416,3.358 1.212,5.196c0.204,0.4 0.313,0.804 0.313,1.22c0.2,2.642 -0.509,4.988 -2.142,7.025c-1.629,2.03 -3.671,3.255 -6.112,3.667c-14.875,1.629 -25.571,3.054 -32.088,4.279c-2.45,0.409 -4.737,-0.15 -6.883,-1.679c-2.134,-1.525 -3.509,-3.617 -4.121,-6.267l0,-1.216c-0.413,-0.413 -0.725,-1.025 -0.917,-1.838c-9.175,-20.787 -23.429,-55.321 -42.791,-103.608c0,-0.408 -0.105,-0.813 -0.3,-1.225l-7.95,0c-0.409,11.417 -0.313,26.487 0.3,45.233c1.016,31.171 1.537,48.288 1.537,51.346c0.804,1.425 1.221,2.954 1.221,4.588c0,2.65 -0.921,4.887 -2.758,6.72c-1.834,1.838 -4.08,2.755 -6.721,2.755" style="fill:#1926aa;fill-rule:nonzero;"/><path d="M1086.94,318.713c-6.334,1.529 -13.305,1.871 -19.546,0c-12.421,-3.741 -20.413,-14.733 -24.138,-28.571c-6.921,-25.716 -23.058,-45.475 -45.583,-58.954c-12.875,-7.691 -27.221,-14.841 -30.442,-29.746c-0.858,-3.979 -1.2,-8.316 0,-12.208c1.871,-6.058 7.046,-10.567 10.767,-15.717c16.712,-23.133 23.412,-48.683 19.262,-77.083c-4.225,-28.929 6.217,-42.287 35.138,-44.642c27.329,-2.208 50.971,-12.391 71.617,-30.42c8.429,-7.367 16.241,-16.717 26.895,-20.255c4.646,-1.537 10,-1.441 14.663,0c6.908,2.134 12.975,7.2 17.75,12.363c22.779,24.621 50.837,36.658 84.05,38.721c22.304,1.387 34.921,18.571 30.9,40.525c-5.354,29.154 0.887,55.612 17.946,79.662c16.721,23.596 12.554,41.021 -12.796,54.917c-23.696,12.971 -41.7,31.725 -49.9,57.512c-4.9,15.438 -11.363,30.238 -26.875,33.896c-6.338,1.5 -13.213,1.584 -19.546,0c-36.742,-9.241 -63.696,-8.783 -100.162,0" style="fill:#f7ea48;fill-rule:nonzero;"/><path d="M1090.5,308.313c-5.884,1.421 -12.371,1.742 -18.163,0c-11.558,-3.475 -18.979,-13.696 -22.437,-26.558c-6.446,-23.905 -21.429,-42.275 -42.392,-54.8c-11.962,-7.15 -25.292,-13.805 -28.287,-27.65c-0.805,-3.696 -1.117,-7.738 0,-11.35c1.741,-5.638 6.558,-9.821 10.008,-14.605c15.546,-21.512 21.762,-45.266 17.912,-71.666c-3.929,-26.892 5.78,-39.3 32.659,-41.484c25.4,-2.07 47.379,-11.525 66.562,-28.283c7.842,-6.854 15.104,-15.546 25.017,-18.833c4.312,-1.434 9.283,-1.346 13.621,0c6.421,1.983 12.062,6.691 16.512,11.487c21.167,22.896 47.25,34.079 78.125,35.996c20.738,1.292 32.454,17.271 28.721,37.683c-4.983,27.088 0.813,51.68 16.679,74.046c15.554,21.925 11.679,38.134 -11.896,51.042c-22.012,12.062 -38.754,29.496 -46.37,53.467c-4.559,14.345 -10.571,28.112 -24.992,31.508c-5.883,1.387 -12.296,1.475 -18.171,0c-34.158,-8.592 -59.221,-8.163 -93.108,0" style="fill:#fdb81c;fill-rule:nonzero;"/><path d="M1119,220.296c-2.304,0.542 -4.833,0.671 -7.096,0c-4.508,-1.358 -7.404,-5.346 -8.75,-10.379c-2.529,-9.329 -8.379,-16.504 -16.558,-21.387c-4.671,-2.796 -9.871,-5.396 -11.054,-10.809c-0.317,-1.437 -0.438,-3.016 0,-4.433c0.692,-2.2 2.571,-3.829 3.917,-5.696c6.062,-8.4 8.504,-17.671 6.991,-27.975c-1.533,-10.512 2.259,-15.358 12.759,-16.204c9.912,-0.804 18.495,-4.508 25.983,-11.05c3.054,-2.671 5.9,-6.058 9.758,-7.342c1.7,-0.566 3.629,-0.537 5.329,0c2.509,0.771 4.705,2.609 6.446,4.484c8.271,8.945 18.45,13.308 30.496,14.054c8.113,0.5 12.688,6.746 11.221,14.712c-1.946,10.579 0.325,20.179 6.517,28.913c6.07,8.566 4.558,14.891 -4.638,19.933c-8.6,4.696 -15.146,11.517 -18.112,20.871c-1.784,5.608 -4.13,10.979 -9.759,12.308c-2.296,0.538 -4.804,0.567 -7.096,0c-13.341,-3.366 -23.12,-3.187 -36.354,0" style="fill:#f7ea48;fill-rule:nonzero;"/><path d="M1247.71,52.413c-33.205,-2.067 -61.28,-14.088 -84.034,-38.717c-0.521,-0.546 -1.05,-1.1 -1.604,-1.65c-4.5,-4.566 -9.992,-8.816 -16.146,-10.708c-4.662,-1.433 -10.025,-1.533 -14.654,0c-6.275,2.083 -11.567,6.179 -16.571,10.708c-3.508,3.163 -6.866,6.517 -10.333,9.546c-20.638,18.029 -44.263,28.196 -71.592,30.413c-20.571,1.679 -31.787,8.929 -35.033,23.391c2.442,-1.7 5.575,-2.271 8.896,-1.933c3.716,0.379 6.054,3.021 7.346,6.204c2.012,4.938 3.483,10.083 5.337,15.083c1.425,3.85 2.713,7.805 4.704,11.342c3.242,5.717 9.971,6.233 14.384,1.367c1.366,-1.496 2.612,-3.242 3.416,-5.096c2.171,-5.004 4.046,-10.133 6.088,-15.204c1.571,-3.867 3.141,-7.759 6.291,-10.7c4.596,-4.309 10.7,-3.029 12.663,2.9c1.05,3.196 1.658,6.641 1.862,10c0.555,8.629 0.667,17.304 1.138,25.933c0.246,4.346 0.971,8.65 2.962,12.617c2.246,4.454 5.917,6.516 10.534,6.2c4.704,-0.325 8.325,-4.175 9.804,-8.009c1.946,-5.1 2.946,-10.35 3.192,-15.787c0.308,-6.404 0.641,-12.813 1.05,-19.2c0.558,-8.558 0.991,-17.142 1.837,-25.675c0.504,-5.154 1.996,-10.15 4.825,-14.608c3.438,-5.384 8.467,-7.675 14.733,-7.117c5.475,0.475 8.463,4.087 10.43,8.825c2.475,6.008 3.062,12.4 3.85,18.75c0.837,6.708 1.516,13.442 2.55,20.121c0.633,4.062 1.829,8.046 4.441,11.391c2.492,3.196 5.817,4.546 9.792,4c3.758,-0.529 5.892,-3.104 6.971,-6.479c0.987,-3.129 1.621,-6.362 2.412,-9.546c1.046,-4.208 1.942,-8.454 3.171,-12.608c0.733,-2.492 2.45,-4.433 4.958,-5.442c5.584,-2.262 13.721,0.738 16.6,6.042c1.75,3.242 2.33,6.763 2.467,10.367c0.367,9.429 -1.529,18.608 -2.996,27.829c-1.229,7.842 -2.716,15.642 -1.621,23.667c0.588,4.237 3.363,7.45 7.459,7.958c4.971,0.617 8.771,-1.388 9.896,-5.879c0.845,-3.375 1.404,-6.988 1.187,-10.434c-0.521,-7.904 -1.596,-15.775 -2.433,-23.662c-0.871,-8.075 -1.867,-16.15 -0.546,-24.275c0.683,-4.238 1.937,-8.242 4.833,-11.538c3.492,-3.983 8.171,-5.366 13.225,-5.729c6.159,-0.454 8.975,1.496 10.963,7.371c0.846,2.5 1.479,5.088 2.562,7.479c2.604,5.779 10.767,6.617 14.259,1.284c1.65,-2.525 2.383,-5.688 3.254,-8.65c1.304,-4.363 2.041,-8.917 3.587,-13.2c1.392,-3.888 4.471,-6.159 8.613,-6.738c-3.329,-1.204 -7,-1.962 -10.979,-2.204" style="fill:#7f392d;fill-rule:nonzero;"/><path d="M1084.77,319.181c0,0 2.783,0.163 7.545,0.563c-2.412,-0.396 -4.737,-0.771 -6.983,-1.129c-0.179,0.187 -0.433,0.383 -0.562,0.566" style="fill:#fdb81c;fill-rule:nonzero;"/><path d="M1461.11,65.259l5.104,25.162c0.462,2.617 -0.009,5.029 -1.363,7.234c-1.366,2.216 -3.358,3.55 -5.962,4.008l-1.204,0.212l-2.109,0.375c-23.779,1.33 -37.287,2.171 -40.529,2.538c-13.75,1.833 -25.567,5.787 -35.446,11.887c-4.866,2.938 -7.691,5.609 -8.508,8.038c-0.446,2.142 1.217,5.058 4.967,8.737c5.995,5.755 15.12,9.421 27.4,10.959c4.466,0.662 10.766,1.196 18.912,1.616c10.425,0.421 17.317,0.755 20.654,0.971c17.646,1.438 32.009,5.396 43.1,11.917c14.796,8.754 26.109,22.883 33.913,42.396c3.716,9.275 4.475,19.383 2.291,30.333c-2.237,10.746 -6.004,20.413 -11.308,29.013c-17.921,28.42 -46.183,41.2 -84.758,38.329c-27.909,-2.075 -57.3,-11.546 -88.242,-28.404c-2.725,-1.375 -4.354,-3.567 -4.9,-6.58c-0.983,-2.1 -1.162,-4.241 -0.521,-6.425l6.196,-22.829c0.575,-2.583 2.033,-4.55 4.392,-5.896c2.346,-1.35 4.721,-1.625 7.146,-0.804c1.495,0.346 2.895,1.146 4.141,2.363c0.442,0.129 0.896,0.354 1.367,0.687c9.212,6.434 20.287,11.713 33.229,15.829c13.142,4.08 25.042,5.796 35.683,5.146c4.925,-0.258 13.813,-2.654 26.655,-7.216c12.083,-4.213 19.391,-8.517 21.933,-12.896c2.929,-4.454 1.779,-11.488 -3.446,-21.121c-3.075,-5.658 -7.5,-10.15 -13.254,-13.471l-1.313,-0.396l-29.383,-8.125l-5.079,-0.65l-16.35,-1.133c-8.383,-0.575 -14.846,-1.129 -19.392,-1.683c-4.541,-0.525 -10.058,-1.571 -16.537,-3.109c-6.479,-1.541 -11.921,-3.571 -16.284,-6.112c-16.254,-8.704 -24.204,-23.734 -23.854,-45.117c0.042,-14.904 4.142,-27.596 12.329,-38.05c8.18,-10.45 18.767,-18.696 31.771,-24.729c21.842,-9.875 46.884,-13.913 75.146,-12.108c1.871,0.079 3.533,0.612 4.95,1.608c2.1,0.25 3.954,1.058 5.542,2.429c1.587,1.375 2.562,3.067 2.921,5.067" style="fill:#f53440;fill-rule:nonzero;"/><path d="M1705.35,75.342c-0.196,4.108 -0.392,9.925 -0.588,17.458c-0.191,7.537 -0.291,12.092 -0.291,13.654c0,2.546 -0.929,4.65 -2.792,6.308c-1.854,1.667 -4.058,2.5 -6.6,2.5c-0.975,0 -1.962,-0.195 -2.937,-0.591c-7.046,0.396 -14.38,0.687 -22.013,0.883c-7.633,0.192 -16.537,0.342 -26.708,0.438c-10.184,0.1 -17.513,0.145 -22.013,0.145c0,4.696 0.925,27.792 2.779,69.267c1.859,41.488 2.792,73 2.792,94.517c0,2.154 -0.633,4.016 -1.904,5.579c-1.275,1.562 -2.896,2.637 -4.842,3.229c-1.766,1.758 -3.912,2.642 -6.462,2.642c-14.279,0 -25.242,0.291 -32.875,0.879c-2.15,0.192 -4.104,-0.342 -5.859,-1.613c-1.766,-1.275 -2.937,-2.887 -3.525,-4.841c-2.545,-2.159 -3.729,-4.892 -3.525,-8.225c1.955,-22.109 2.734,-49.4 2.346,-81.888c-0.196,-7.233 -0.441,-19.125 -0.733,-35.662c-0.292,-16.529 -0.442,-29.209 -0.442,-38.013c-11.154,0.196 -33.362,0.792 -66.625,1.763c-2.546,0 -4.75,-0.829 -6.616,-2.5c-1.855,-1.654 -2.784,-3.763 -2.784,-6.309l0,-1.466c-1.171,-1.763 -1.758,-3.617 -1.758,-5.584c0,-3.516 -0.104,-8.845 -0.292,-15.991c-0.204,-7.138 -0.291,-12.471 -0.291,-15.996c0,-1.558 0.391,-3.033 1.17,-4.396c0.784,-3.717 3.125,-5.971 7.05,-6.758c7.234,-1.563 15.355,-2.642 24.355,-3.225c9,-0.584 16.733,-0.779 23.195,-0.584c6.45,0.196 14.771,0.488 24.95,0.875c10.163,0.392 17.513,0.584 22.005,0.584c26.62,0.396 60.366,0.591 101.279,0.591c4.287,0 7.129,2.05 8.504,6.167c1.562,1.754 2.246,3.821 2.05,6.163" style="fill:#f53440;fill-rule:nonzero;"/><path d="M1809.48,180.082l-7.95,-22.012l-7.942,-21.692l-14.983,28.729l-8.254,15.888c10.396,-0.809 23.429,-1.113 39.129,-0.913m82.829,107.283c-5.096,-0.425 -11.108,-0.516 -18.033,-0.308c-11.013,0.604 -17.621,0.913 -19.875,0.913c-2.646,0 -4.883,-0.913 -6.721,-2.75c-1.829,-1.834 -2.742,-4.08 -2.742,-6.721l0,-1.534c0,-0.4 -0.108,-0.708 -0.308,-0.912c-6.112,-16.704 -11.108,-29.238 -14.975,-37.596c-0.425,-1.021 -0.725,-2.142 -0.921,-3.362l-7.641,-15.888c-21.596,1.829 -40.863,2.338 -57.763,1.529c-11.004,23.838 -21.296,44.113 -30.867,60.813c-1.025,1.637 -2.345,2.954 -3.97,3.979l-0.621,0.917c-1.425,2.233 -3.409,3.616 -5.967,4.125c-2.537,0.504 -4.937,0.041 -7.175,-1.375c-11.612,0 -20.892,0.195 -27.817,0.612c-3.254,0.2 -5.9,-0.921 -7.941,-3.362c-2.442,-1.025 -4.129,-2.705 -5.038,-5.05c-0.921,-2.338 -0.971,-4.734 -0.162,-7.175c3.262,-8.967 8.054,-19.971 14.371,-33.009l14.975,-31.791c22.62,-50.317 44.425,-96.58 65.404,-138.755c0.812,-1.629 2.033,-2.85 3.671,-3.675c1.829,-2.237 4.27,-3.358 7.333,-3.358c6.108,0.204 12.529,0.313 19.254,0.313c1.625,0 3.154,0.408 4.579,1.216c4.292,-0.2 7.342,1.534 9.171,5.196c11.208,22.821 25.879,56.142 44.013,99.938c20.783,50.337 35.041,83.345 42.787,99.033l0.613,1.833c2.041,2.038 2.954,4.584 2.758,7.642c-0.213,2.646 -1.333,4.787 -3.371,6.417c-2.042,1.629 -4.375,2.341 -7.021,2.145" style="fill:#f53440;fill-rule:nonzero;"/><path d="M1988.57,106.726c-0.204,6.725 -0.812,17.837 -1.829,33.316c6.517,0.409 11.813,0.613 15.9,0.613c13.446,-0.204 23.625,-3.867 30.559,-11.008c2.025,-2.442 3.158,-4.271 3.362,-5.496c0.404,-1.417 0,-3.363 -1.221,-5.813c-3.671,-6.921 -12.437,-10.887 -26.287,-11.921c-5.909,-0.604 -12.738,-0.495 -20.484,0.309m-22.308,187.971c-14.062,0 -24.762,-0.209 -32.087,-0.617c-2.65,-0.204 -4.85,-1.279 -6.575,-3.208c-1.734,-1.938 -2.496,-4.234 -2.296,-6.875l0,-0.913c-0.609,-1.433 -0.917,-3.058 -0.917,-4.9l0.308,-3.354c-0.812,-1.633 -1.22,-3.258 -1.22,-4.888c0.204,-17.32 0.308,-27.92 0.308,-31.795c0,-3.867 -0.308,-14.463 -0.925,-31.78c-0.613,-17.316 -0.913,-27.912 -0.913,-31.787c-0.204,-6.925 -0.108,-24.546 0.3,-52.879c0.409,-22.204 0,-39.317 -1.22,-51.346c-0.205,-2.033 0.308,-3.971 1.529,-5.804c-0.204,-0.404 -0.309,-0.717 -0.309,-0.921c-0.195,-2.642 0.563,-4.992 2.296,-7.025c1.734,-2.038 3.825,-3.158 6.267,-3.363c20.375,-1.629 41.771,-1.529 64.192,0.305c29.133,2.654 50.12,8.15 62.954,16.508c11.412,7.537 19.866,16.25 25.366,26.129c5.505,9.883 7.438,20.125 5.813,30.717c-1.433,10.187 -6.017,19.458 -13.754,27.816c-7.746,8.35 -17.734,15.075 -29.954,20.163c-2.859,1.225 -5.909,2.246 -9.175,3.062c0.816,2.855 2.954,9.584 6.42,20.171l7.334,22.317c1.425,4.271 3.612,10.437 6.575,18.483c2.954,8.054 5.854,15.184 8.708,21.396c2.858,6.221 5.908,12.283 9.171,18.192c1.017,1.621 1.425,3.358 1.221,5.196c0.204,0.4 0.308,0.804 0.308,1.22c0.196,2.642 -0.512,4.988 -2.137,7.025c-1.638,2.03 -3.671,3.255 -6.113,3.667c-14.883,1.629 -25.571,3.054 -32.087,4.279c-2.45,0.409 -4.738,-0.15 -6.888,-1.679c-2.137,-1.525 -3.512,-3.617 -4.117,-6.267l0,-1.216c-0.412,-0.413 -0.725,-1.025 -0.925,-1.838c-9.166,-20.787 -23.429,-55.321 -42.791,-103.608c0,-0.408 -0.104,-0.813 -0.3,-1.225l-7.946,0c-0.413,11.417 -0.308,26.487 0.304,45.233c1.017,31.171 1.529,48.288 1.529,51.346c0.813,1.425 1.221,2.954 1.221,4.588c0,2.65 -0.912,4.887 -2.75,6.72c-1.833,1.838 -4.079,2.755 -6.725,2.755" style="fill:#f53440;fill-rule:nonzero;"/></g></svg>