<?xml version="1.0" encoding="UTF-8" standalone="no"?><!DOCTYPE svg PUBLIC "-//W3C//DTD SVG 1.1//EN" "http://www.w3.org/Graphics/SVG/1.1/DTD/svg11.dtd"><svg width="100%" height="100%" viewBox="0 0 694 781" version="1.1" xmlns="http://www.w3.org/2000/svg" xmlns:xlink="http://www.w3.org/1999/xlink" xml:space="preserve" xmlns:serif="http://www.serif.com/" style="fill-rule:evenodd;clip-rule:evenodd;stroke-linejoin:round;stroke-miterlimit:2;"><g><path d="M612.796,620.972c-2.499,-35.221 -4.617,-73.791 -4.617,-104.794l-0,-516.178l85.583,0l0,780.471l-87.451,-0l-134.32,-171.211l-232.564,-0l2.743,171.211l-88.003,-0l-0,-579.418c-19.032,-28.082 -69.786,-103.788 -69.786,-103.788c0,-0 -0.663,115.591 -0.663,164.752l-0,518.454l-83.718,-0l-0,-780.471l134.381,-0l478.415,620.972Zm-374.248,-86.812l174.525,0c-0,0 -171.402,-220.22 -174.525,-224.543l-0,224.543Z" style="fill-rule:nonzero; fill:#E4DED2"/></g></svg>